# xmcd
#
# Track frame offsets:
#	150
#	13971
#	25605
#	39060
#	52336
#	66810
#	79874
#	93966
#	109093
#	123285
#	137669
#	152317
#	166102
#	180153
#	194865
#	209553
#	223717
#	237180
#	248815
#	261193
#	277561
#	291368
#	305430
#
# Disc length: 4240 seconds
#
# Revision: 5
# Processed by: cddbd v1.5.2PL0 Copyright (c) Steve Scherf et al.
# Submitted via: audiograbber 1.83.01
#
DISCID=3c108e17
DTITLE=Various Artist - The Stuff That Dreams Are Made Of 2
DYEAR=2006
DGENRE=Blues
TTITLE0=Yank Rachel and Sleepy John Estes and Jab Jones - Sweet Mama
TTITLE1=Crowder Brothers - We All Love Mother (Unissued)
TTITLE2=Son House - Clarksdale Moan
TTITLE3=Ashley and Foster - Bull Dog Sal (Unissued)
TTITLE4=Jesse 'Babyface' Thomas - Down in Texas Blues
TTITLE5=Georgia Pot Lickers - Chicken Don't Roost Too High
TTITLE6=William Harris - I'm Leavin' Town (But I Sho' Don't Wanna Go)
TTITLE7=Asa Martin and Roy Hobbs - Wild Cat Rag
TTITLE8=King Soloman Hill - Whoopee Blues
TTITLE9=Chubby Parker - Davey Crockett
TTITLE10=Geeshie Wiley - Skinny Leg Blues
TTITLE11=Sweet Brothers - I'm Gonna Marry That Pretty Little Girl (Unissued)
TTITLE12=Blind Roosevelt Graves and Uaroy Graves - I Shall Not Be Moved
TTITLE13=Smith and Irvine - Lonesome Road Blues
TTITLE14=Luke Jordon - If I Call You Mama
TTITLE15=Grayson and Whitter - My Mind Is To Marry (Unissued)
TTITLE16=Osey Helton - Green River
TTITLE17=Lottie Kimbrough - Don't Speak To Me
TTITLE18=Wade Ward - Married Man's Blues (Unissued)
TTITLE19=Ken Maynard - Sweet Betsey From Pike (Unissued)
TTITLE20=Jaybird Coleman - Boll Weevil
TTITLE21=Bill Shepherd and Hayes Shepherd and Ed Webb - Bound Steel Blues
TTITLE22=Middle Georgia Singing Convention #1 - Bells Of Love
EXTD=
EXTT0=
EXTT1=
EXTT2=
EXTT3=
EXTT4=
EXTT5=
EXTT6=
EXTT7=
EXTT8=
EXTT9=
EXTT10=
EXTT11=
EXTT12=
EXTT13=
EXTT14=
EXTT15=
EXTT16=
EXTT17=
EXTT18=
EXTT19=
EXTT20=
EXTT21=
EXTT22=
PLAYORDER=
